<?xml version="1.0" encoding="UTF-8" standalone="no"?>
<!-- Generator: Adobe Illustrator 19.0.0, SVG Export Plug-In . SVG Version: 6.00 Build 0)  -->

<svg
   xmlns:dc="http://purl.org/dc/elements/1.1/"
   xmlns:cc="http://creativecommons.org/ns#"
   xmlns:rdf="http://www.w3.org/1999/02/22-rdf-syntax-ns#"
   xmlns:svg="http://www.w3.org/2000/svg"
   xmlns="http://www.w3.org/2000/svg"
   xmlns:sodipodi="http://sodipodi.sourceforge.net/DTD/sodipodi-0.dtd"
   xmlns:inkscape="http://www.inkscape.org/namespaces/inkscape"
   version="1.1"
   id="Layer_1"
   x="0px"
   y="0px"
   viewBox="0 0 512 512"
   style="enable-background:new 0 0 512 512;"
   xml:space="preserve"
   sodipodi:docname="logo.svg"
   inkscape:version="0.92.5 (2060ec1f9f, 2020-04-08)"><metadata
   id="metadata69"><rdf:RDF><cc:Work
       rdf:about=""><dc:format>image/svg+xml</dc:format><dc:type
         rdf:resource="http://purl.org/dc/dcmitype/StillImage" /><dc:title></dc:title></cc:Work></rdf:RDF></metadata><defs
   id="defs67">
	
	
</defs><sodipodi:namedview
   pagecolor="#ffffff"
   bordercolor="#666666"
   borderopacity="1"
   objecttolerance="10"
   gridtolerance="10"
   guidetolerance="10"
   inkscape:pageopacity="0"
   inkscape:pageshadow="2"
   inkscape:window-width="1718"
   inkscape:window-height="1351"
   id="namedview65"
   showgrid="false"
   inkscape:zoom="1.3037281"
   inkscape:cx="350.93719"
   inkscape:cy="307.1571"
   inkscape:window-x="1912"
   inkscape:window-y="0"
   inkscape:window-maximized="0"
   inkscape:current-layer="Layer_1" />














<g
   id="g34">
</g>
<g
   id="g36">
</g>
<g
   id="g38">
</g>
<g
   id="g40">
</g>
<g
   id="g42">
</g>
<g
   id="g44">
</g>
<g
   id="g46">
</g>
<g
   id="g48">
</g>
<g
   id="g50">
</g>
<g
   id="g52">
</g>
<g
   id="g54">
</g>
<g
   id="g56">
</g>
<g
   id="g58">
</g>
<g
   id="g60">
</g>
<g
   id="g62">
</g>
<circle
   style="fill:#273b7a"
   cx="255.42134"
   cy="260.41379"
   r="256"
   id="circle71" /><path
   inkscape:connector-curvature="0"
   style="fill:#121149"
   d="m 509.81062,283.25409 c 0,0 7.69787,-41.58851 -10.1826,-98.39762 -1.56131,-4.96053 -107.05397,-86.443803 -107.05397,-86.443803 l -22.78113,2.468253 -10.33441,26.33442 -23.59323,72.89943 c -16.808,4.227 -18.53691,-3.87003 -41.41291,1.96597 l -10.36197,-8.67196 -20.68449,5.01958 -10.0533,15.0897 0.006,18.45479 9.26144,7.27163 1.5953,1.05771 12.90089,10.45208 0.57637,19.29046 0.84121,-5.51206 -37.32719,-30.27375 -1.02187,20.27709 14.97819,11.78972 -1.97096,9.75581 13.83397,11.01979 -9.56246,14.97327 -41.05241,-32.10163 14.80808,39.0664 24.99458,21.44262 -10.71086,44.96426 13.82815,20.45297 -13.22247,28.79849 -42.44709,40.05616 c 5.463,0.348 66.2501,51.32023 71.78653,50.91835 117.20557,-8.50782 225.04921,-105.0085 234.36285,-232.41813 z"
   id="path73"
   sodipodi:nodetypes="cscccccccccccccccccccccccccccscc" /><g
   id="g87"
   transform="matrix(0.68345203,0,0,0.6863174,164.77926,20.959552)">
	<path
   inkscape:connector-curvature="0"
   style="fill:#71e2ef"
   d="m 165.21,362.93 c -1.903,0 -3.448,-1.545 -3.448,-3.448 v -22.828 c 0,-1.903 1.545,-3.448 3.448,-3.448 1.903,0 3.448,1.545 3.448,3.448 v 22.828 c 0,1.906 -1.544,3.448 -3.448,3.448 z"
   id="path75" />
	<path
   inkscape:connector-curvature="0"
   style="fill:#71e2ef"
   d="m 131.544,372.615 c -1.903,0 -3.448,-1.545 -3.448,-3.448 V 346.34 c 0,-1.903 1.545,-3.448 3.448,-3.448 1.903,0 3.448,1.545 3.448,3.448 v 22.828 c 0,1.904 -1.544,3.447 -3.448,3.447 z"
   id="path77" />
	<path
   inkscape:connector-curvature="0"
   style="fill:#71e2ef"
   d="m 110.33,340.333 c -1.903,0 -3.448,-1.545 -3.448,-3.448 v -22.828 c 0,-1.903 1.545,-3.448 3.448,-3.448 1.903,0 3.448,1.545 3.448,3.448 v 22.828 c 0,1.904 -1.545,3.448 -3.448,3.448 z"
   id="path79" />
	<path
   inkscape:connector-curvature="0"
   style="fill:#71e2ef"
   d="m 149.992,421.962 c -1.903,0 -3.448,-1.545 -3.448,-3.448 v -22.828 c 0,-1.903 1.545,-3.448 3.448,-3.448 1.903,0 3.448,1.545 3.448,3.448 v 22.828 c 0,1.905 -1.545,3.448 -3.448,3.448 z"
   id="path81" />
	<path
   inkscape:connector-curvature="0"
   style="fill:#71e2ef"
   d="m 145.49061,319.59359 c -1.903,0 -3.24961,-1.74257 -3.24961,-3.64557 V 280.974 c 0,-8.575 6.975,-15.55 15.548,-15.55 h 12.343 c 1.903,0 3.448,1.545 3.448,3.448 0,1.903 -1.545,3.448 -3.448,3.448 h -12.343 c -4.772,0 -8.59862,3.8823 -8.652,8.654 l -0.39679,35.46794 c -0.0213,1.90388 -1.3466,3.15165 -3.2496,3.15165 z"
   id="path83"
   sodipodi:nodetypes="sssssssssss" />
	<path
   inkscape:connector-curvature="0"
   style="fill:#71e2ef"
   d="m 131.391,308.05 c -1.903,0 -3.448,-1.545 -3.448,-3.448 v -25.135 c 0,-16.015 13.029,-29.044 29.044,-29.044 h 15.45 c 1.903,0 3.448,1.545 3.448,3.448 0,1.903 -1.545,3.448 -3.448,3.448 h -15.45 c -12.212,0 -22.149,9.937 -22.149,22.149 v 25.135 c 0.001,1.904 -1.544,3.447 -3.447,3.447 z"
   id="path85" />
</g><path
   inkscape:connector-curvature="0"
   style="fill:#fee187;stroke-width:0.68488324"
   d="m 413.38221,171.86016 -5.3938,-5.41642 c 6.37661,-6.40334 5.59747,-40.10289 -13.34577,-59.12555 -6.80171,-6.83024 -17.93788,-6.7616 -24.82503,0.15373 -6.80171,6.83023 -6.80171,17.94446 0,24.77537 l -5.3938,5.41642 c -9.77542,-9.8164 -9.77678,-25.79043 0,-35.60821 9.86016,-9.901497 25.83585,-9.970129 35.61263,-0.15373 9.31751,9.35656 15.9798,23.47343 18.28098,38.73026 1.66284,11.03187 1.23841,25.02725 -4.93521,31.22813 z"
   id="path89" /><polygon
   style="fill:#eaa22f"
   points="269.34,260.567 269.619,260.615 263.521,227.58 237.694,253.407 190.788,255.59 189.452,264.811 304.293,293.447 "
   id="polygon91"
   transform="matrix(0.68345203,0,0,0.6863174,164.77926,20.959552)" /><path
   inkscape:connector-curvature="0"
   style="fill:#ffc61b;stroke-width:0.68488324"
   d="m 425.96661,193.04197 -36.43004,36.58278 c -5.52434,5.5475 -14.59307,5.16454 -19.63353,-0.83044 l -51.05728,-60.72468 45.82136,-46.01484 60.47115,51.27134 c 5.97132,5.06297 6.35405,14.16834 0.82834,19.71584 z"
   id="path93" /><g
   id="g99"
   transform="matrix(0.68345203,0,0,0.6863174,164.77926,20.959552)">
	<path
   inkscape:connector-curvature="0"
   style="fill:#eaa22f"
   d="m 380.949,222.006 -88.479,-74.705 -33.652,33.652 97.532,95.591 25.812,-25.812 c 8.082,-8.082 7.522,-21.349 -1.213,-28.726 z"
   id="path95" />
	<polygon
   style="fill:#eaa22f"
   points="292.469,147.303 225.425,214.347 241.245,233.086 311.208,163.123 "
   id="polygon97" />
</g><g
   id="g105"
   transform="matrix(0.68345203,0,0,0.6863174,164.77926,20.959552)">
	<polygon
   style="fill:#ff5419"
   points="311.208,163.123 292.469,147.303 258.817,180.955 276.27,198.061 "
   id="polygon101" />
	
		<rect
   x="170.298"
   y="254.48399"
   transform="matrix(-0.0622,0.9981,-0.9981,-0.0622,459.6487,87.7885)"
   style="fill:#ff5419"
   width="36.564999"
   height="10.716"
   id="rect103" />
</g><g
   id="g107"
   transform="translate(-0.57865254,4.4137976)">
</g><g
   id="g109"
   transform="translate(-0.57865254,4.4137976)">
</g><g
   id="g111"
   transform="translate(-0.57865254,4.4137976)">
</g><g
   id="g113"
   transform="translate(-0.57865254,4.4137976)">
</g><g
   id="g115"
   transform="translate(-0.57865254,4.4137976)">
</g><g
   id="g117"
   transform="translate(-0.57865254,4.4137976)">
</g><g
   id="g119"
   transform="translate(-0.57865254,4.4137976)">
</g><g
   id="g121"
   transform="translate(-0.57865254,4.4137976)">
</g><g
   id="g123"
   transform="translate(-0.57865254,4.4137976)">
</g><g
   id="g125"
   transform="translate(-0.57865254,4.4137976)">
</g><g
   id="g127"
   transform="translate(-0.57865254,4.4137976)">
</g><g
   id="g129"
   transform="translate(-0.57865254,4.4137976)">
</g><g
   id="g131"
   transform="translate(-0.57865254,4.4137976)">
</g><g
   id="g133"
   transform="translate(-0.57865254,4.4137976)">
</g><g
   id="g135"
   transform="translate(-0.57865254,4.4137976)">
</g><g
   id="g733"
   transform="matrix(0.4542988,0,0,0.48788415,-10.869794,264.41731)"><g
     id="g796"
     transform="translate(358.16045,-4.446735)"><g
       id="g782"><g
         id="g745"><g
           id="g667">
	<path
   inkscape:connector-curvature="0"
   style="fill:#f7b239"
   d="m 328.189,386.778 v 2.581 c 0,19.879 -16.12,35.999 -36,35.999 H 139.168 c -19.879,0 -35.999,-16.12 -35.999,-35.999 v -2.581 h 45.59 133.84 45.59"
   id="path645" />
	<path
   inkscape:connector-curvature="0"
   style="fill:#a17a36"
   d="m 138.168,386.778 h -34.999 v 2.581 c 0,19.879 16.12,35.999 35.999,35.999 h 35 c -19.88,0 -36,-16.12 -36,-35.999 v -2.581"
   id="path647" />
	<path
   inkscape:connector-curvature="0"
   style="fill:#f24125"
   d="m 308.897,203.248 -14.69,157.82 c -0.93,9.97 -5.18,18.899 -11.61,25.71 H 148.759 c -6.431,-6.811 -10.681,-15.74 -11.611,-25.71 l -14.69,-157.82 h 61.22 37.329 26.671 61.219"
   id="path649" />
	<path
   inkscape:connector-curvature="0"
   style="fill:#9e3b2b"
   d="m 159.458,203.248 h -37 l 14.69,157.82 c 0.93,9.97 5.18,18.899 11.611,25.71 h 37 c -6.431,-6.811 -10.681,-15.74 -11.611,-25.71 l -14.69,-157.82"
   id="path651" />
	<path
   inkscape:connector-curvature="0"
   style="fill:#4cc18e"
   d="m 263.058,104.208 c 49.67,-40.4 115.29,-40.4 115.29,-40.4 -104,34.67 -130.67,138.67 -130.67,138.67 v 0.77 h -26.67 v -0.77 c -1.23,-9.16 -3.04,-17.72 -5.34,-25.71 h 0.01 c 4.31,-15.02 10.35,-28.05 17.6,-39.34 8.55,-13.35 18.77,-24.28 29.78,-33.22 z"
   id="path653" />
	<path
   inkscape:connector-curvature="0"
   style="fill:#4cc18e"
   d="m 320.168,6.008 c -33.05,30.62 -49.37,66.52 -57.12,98.18 l 0.01,0.02 c -11.01,8.94 -21.23,19.87 -29.78,33.22 -7.25,11.29 -13.29,24.32 -17.6,39.34 l 1.33,-27.08 c 2.48,-97.3 101.59,-142.97 103.16,-143.68 z"
   id="path655" />
	<path
   inkscape:connector-curvature="0"
   style="fill:#4cc18e"
   d="m 217.008,149.688 -1.33,27.08 h -0.01 c -8.88,-30.98 -25.13,-53.46 -44.03,-69.77 v -0.01 c -7.47,-32.33 -23.75,-69.44 -57.79,-100.98 1.58,0.71 100.68,46.38 103.16,143.68 z"
   id="path657" />
	<path
   inkscape:connector-curvature="0"
   style="fill:#4cc18e"
   d="m 221.008,202.478 v 0.77 h -37.33 v -0.77 c 0,0 -26.67,-104 -130.67,-138.67 0,0 68.61,0 118.63,43.18 v 0.01 c 18.9,16.31 35.15,38.79 44.03,69.77 2.3,7.99 4.11,16.55 5.34,25.71 z"
   id="path659" />
	
	
	<g
   id="g799"><path
     id="path665"
     d="m 384.271,62.847 c -0.471,-2.905 -2.979,-5.039 -5.922,-5.039 -2.511,0 -56.75,0.393 -104.683,31.315 10.197,-30.508 27.078,-56.875 50.377,-78.524 1.371,-1.147 2.14,-2.843 2.14,-4.593 0,-0.885 -0.196,-1.784 -0.61,-2.633 -1.431,-2.934 -4.948,-4.172 -7.9,-2.821 -1.392,0.632 -26.87,12.381 -52.842,36.694 -23.556,22.051 -39.714,47.366 -47.823,74.567 C 208.9,84.613 192.747,59.297 169.193,37.247 144.405,14.043 119.579,2.064 116.603,0.672 c -2.308,-1.201 -5.219,-0.787 -7.105,1.193 -2.285,2.399 -2.188,6.202 0.212,8.487 l 0.06,0.057 c 23.996,22.233 41.217,49.413 51.35,80.967 C 112.42,58.23 55.635,57.808 53.008,57.808 c -2.943,0 -5.451,2.134 -5.922,5.039 -0.472,2.904 1.233,5.722 4.025,6.653 51.907,17.304 83.556,52.812 100.966,79.551 13.189,20.257 20.454,38.704 23.692,48.197 h -53.311 c -1.688,0 -3.298,0.711 -4.435,1.959 -1.137,1.248 -1.696,2.917 -1.539,4.597 l 14.69,157.821 c 0.629,6.736 2.659,13.268 5.879,19.152 h -33.885 c -3.313,0 -6,2.687 -6,6 v 2.58 c 0,23.159 18.841,42 42,42 h 153.02 c 23.159,0 42,-18.841 42,-42 v -2.58 c 0,-3.313 -2.687,-6 -6,-6 h -33.885 c 3.22,-5.884 5.251,-12.417 5.879,-19.154 l 14.69,-157.82 c 0.157,-1.681 -0.402,-3.35 -1.539,-4.597 -1.137,-1.248 -2.747,-1.959 -4.435,-1.959 h -53.319 c 3.205,-9.416 10.383,-27.659 23.468,-47.84 17.423,-26.872 49.123,-62.548 101.198,-79.909 2.793,-0.929 4.497,-3.747 4.026,-6.651 z M 288.661,32.86 c -14.219,20.127 -24.577,42.885 -30.958,68.02 -11.569,9.658 -21.492,20.844 -29.473,33.306 -1.682,2.619 -3.27,5.318 -4.793,8.069 C 227.72,89.844 261.647,53.66 288.661,32.86 Z M 145.313,32.787 c 27.992,21.515 63.438,59.568 65.615,115.194 -8.412,-16.878 -19.751,-31.673 -33.896,-44.207 C 170.718,77.453 160.099,53.696 145.313,32.787 Z M 162.377,142.88 C 148.53,121.523 126.151,94.91 92.475,75.151 c 22.658,5.258 51.275,15.689 75.243,36.379 l 0.001,0.011 c 20.288,17.507 34.48,40.009 42.184,66.887 1.734,6.023 3.151,12.334 4.242,18.821 h -25.737 c -2.605,-8.416 -10.191,-29.939 -26.031,-54.369 z m 129.811,276.478 h -153.02 c -15.386,0 -28.104,-11.642 -29.806,-26.58 h 212.632 c -1.702,14.938 -14.42,26.58 -29.806,26.58 z m 10.126,-210.11 -14.08,151.262 c -0.704,7.551 -3.582,14.506 -8.346,20.268 h -128.42 c -4.764,-5.762 -7.642,-12.716 -8.346,-20.266 L 129.042,209.248 Z M 268.979,142.88 c -15.84,24.43 -23.426,45.953 -26.03,54.368 h -16.664 c -1.106,-7.005 -2.556,-13.843 -4.364,-20.383 3.923,-13.151 9.427,-25.328 16.41,-36.201 7.658,-11.957 17.25,-22.655 28.514,-31.801 23.208,-18.877 50.3,-28.632 71.968,-33.672 -33.64,19.756 -55.996,46.346 -69.834,67.689 z"
     style="fill:#333333"
     inkscape:connector-curvature="0" /></g>
</g></g></g></g><g
     id="g669">
</g><g
     id="g671">
</g><g
     id="g673">
</g><g
     id="g675">
</g><g
     id="g677">
</g><g
     id="g679">
</g><g
     id="g681">
</g><g
     id="g683">
</g><g
     id="g685">
</g><g
     id="g687">
</g><g
     id="g689">
</g><g
     id="g691">
</g><g
     id="g693">
</g><g
     id="g695">
</g><g
     id="g697">
</g></g><flowRoot
   xml:space="preserve"
   id="flowRoot842"
   style="fill:black;fill-opacity:1;stroke:none;font-family:sans-serif;font-style:normal;font-weight:normal;font-size:40px;line-height:1.25;letter-spacing:0px;word-spacing:0px"><flowRegion
     id="flowRegion844"><rect
       id="rect846"
       width="35.283428"
       height="42.18671"
       x="193.29184"
       y="113.91087" /></flowRegion><flowPara
     id="flowPara848"></flowPara></flowRoot><flowRoot
   xml:space="preserve"
   id="flowRoot850"
   style="fill:black;fill-opacity:1;stroke:none;font-family:sans-serif;font-style:normal;font-weight:normal;font-size:40px;line-height:1.25;letter-spacing:0px;word-spacing:0px"><flowRegion
     id="flowRegion852"><rect
       id="rect854"
       width="23.010933"
       height="59.061394"
       x="102.01514"
       y="232.03366" /></flowRegion><flowPara
     id="flowPara856"></flowPara></flowRoot><flowRoot
   xml:space="preserve"
   id="flowRoot874"
   style="fill:black;fill-opacity:1;stroke:none;font-family:sans-serif;font-style:normal;font-weight:normal;font-size:40px;line-height:1.25;letter-spacing:0px;word-spacing:0px"><flowRegion
     id="flowRegion876"><rect
       id="rect878"
       width="181.78636"
       height="330.59039"
       x="131.92935"
       y="104.7065" /></flowRegion><flowPara
     id="flowPara880"></flowPara></flowRoot><flowRoot
   xml:space="preserve"
   id="flowRoot941"
   style="fill:black;fill-opacity:1;stroke:none;font-family:sans-serif;font-style:normal;font-weight:normal;font-size:40px;line-height:1.25;letter-spacing:0px;word-spacing:0px"><flowRegion
     id="flowRegion943"><rect
       id="rect945"
       width="54.459206"
       height="211.70058"
       x="151.10512"
       y="191.38101" /></flowRegion><flowPara
     id="flowPara947"></flowPara></flowRoot><text
   xml:space="preserve"
   style="font-style:normal;font-weight:normal;font-size:40px;line-height:1.25;font-family:sans-serif;letter-spacing:0px;word-spacing:0px;fill:#f2f3f3;fill-opacity:1;stroke:none"
   x="58.294365"
   y="80.161499"
   id="text1976"><tspan
     sodipodi:role="line"
     id="tspan1974"
     x="58.294365"
     y="115.55213"
     style="font-style:normal;font-variant:normal;font-weight:normal;font-stretch:normal;font-size:40px;font-family:'Frank Ruhl Hofshi';-inkscape-font-specification:'Frank Ruhl Hofshi, Normal';font-variant-ligatures:normal;font-variant-caps:normal;font-variant-numeric:normal;font-feature-settings:normal;text-align:start;writing-mode:lr-tb;text-anchor:start;fill:#f2f3f3;fill-opacity:1" /><tspan
     sodipodi:role="line"
     x="58.294365"
     y="165.55214"
     id="tspan1978"
     style="font-style:normal;font-variant:normal;font-weight:normal;font-stretch:normal;font-size:40px;font-family:'Frank Ruhl Hofshi';-inkscape-font-specification:'Frank Ruhl Hofshi, Normal';font-variant-ligatures:normal;font-variant-caps:normal;font-variant-numeric:normal;font-feature-settings:normal;text-align:start;writing-mode:lr-tb;text-anchor:start;fill:#f2f3f3;fill-opacity:1">Plant</tspan><tspan
     sodipodi:role="line"
     x="58.294365"
     y="216.29132"
     id="tspan1982"
     style="font-style:normal;font-variant:normal;font-weight:normal;font-stretch:normal;font-size:40px;font-family:'Frank Ruhl Hofshi';-inkscape-font-specification:'Frank Ruhl Hofshi, Normal';font-variant-ligatures:normal;font-variant-caps:normal;font-variant-numeric:normal;font-feature-settings:normal;text-align:start;writing-mode:lr-tb;text-anchor:start;fill:#f2f3f3;fill-opacity:1" /></text>
<text
   xml:space="preserve"
   style="font-style:normal;font-weight:normal;font-size:40px;line-height:1.25;font-family:sans-serif;letter-spacing:0px;word-spacing:0px;fill:#f2f3f3;fill-opacity:1;stroke:none"
   x="99.132927"
   y="98.173172"
   id="text1976-6"><tspan
     sodipodi:role="line"
     id="tspan1974-8"
     x="99.132927"
     y="98.173172"
     style="font-style:normal;font-variant:normal;font-weight:normal;font-stretch:normal;font-size:40px;font-family:'Frank Ruhl Hofshi';-inkscape-font-specification:'Frank Ruhl Hofshi, Normal';font-variant-ligatures:normal;font-variant-caps:normal;font-variant-numeric:normal;font-feature-settings:normal;text-align:start;writing-mode:lr-tb;text-anchor:start;fill:#f2f3f3;fill-opacity:1">Autonomous</tspan><tspan
     sodipodi:role="line"
     x="99.132927"
     y="148.91237"
     id="tspan1982-0"
     style="font-style:normal;font-variant:normal;font-weight:normal;font-stretch:normal;font-size:40px;font-family:'Frank Ruhl Hofshi';-inkscape-font-specification:'Frank Ruhl Hofshi, Normal';font-variant-ligatures:normal;font-variant-caps:normal;font-variant-numeric:normal;font-feature-settings:normal;text-align:start;writing-mode:lr-tb;text-anchor:start;fill:#f2f3f3;fill-opacity:1" /></text>
<text
   xml:space="preserve"
   style="font-style:normal;font-weight:normal;font-size:40px;line-height:1.25;font-family:sans-serif;letter-spacing:0px;word-spacing:0px;fill:#f2f3f3;fill-opacity:1;stroke:none"
   x="24.561382"
   y="155.66084"
   id="text1976-66"><tspan
     sodipodi:role="line"
     id="tspan1974-2"
     x="24.561382"
     y="191.05147"
     style="font-style:normal;font-variant:normal;font-weight:normal;font-stretch:normal;font-size:40px;font-family:'Frank Ruhl Hofshi';-inkscape-font-specification:'Frank Ruhl Hofshi, Normal';font-variant-ligatures:normal;font-variant-caps:normal;font-variant-numeric:normal;font-feature-settings:normal;text-align:start;writing-mode:lr-tb;text-anchor:start;fill:#f2f3f3;fill-opacity:1" /><tspan
     sodipodi:role="line"
     x="24.561382"
     y="241.05147"
     id="tspan1978-4"
     style="font-style:normal;font-variant:normal;font-weight:normal;font-stretch:normal;font-size:40px;font-family:'Frank Ruhl Hofshi';-inkscape-font-specification:'Frank Ruhl Hofshi, Normal';font-variant-ligatures:normal;font-variant-caps:normal;font-variant-numeric:normal;font-feature-settings:normal;text-align:start;writing-mode:lr-tb;text-anchor:start;fill:#f2f3f3;fill-opacity:1">Watering</tspan><tspan
     sodipodi:role="line"
     x="24.561382"
     y="291.79065"
     id="tspan1982-6"
     style="font-style:normal;font-variant:normal;font-weight:normal;font-stretch:normal;font-size:40px;font-family:'Frank Ruhl Hofshi';-inkscape-font-specification:'Frank Ruhl Hofshi, Normal';font-variant-ligatures:normal;font-variant-caps:normal;font-variant-numeric:normal;font-feature-settings:normal;text-align:start;writing-mode:lr-tb;text-anchor:start;fill:#f2f3f3;fill-opacity:1" /></text>
<text
   xml:space="preserve"
   style="font-style:normal;font-weight:normal;font-size:40px;line-height:1.25;font-family:sans-serif;letter-spacing:0px;word-spacing:0px;fill:#f2f3f3;fill-opacity:1;stroke:none"
   x="26.662477"
   y="229.47801"
   id="text1976-66-7"><tspan
     sodipodi:role="line"
     id="tspan1974-2-0"
     x="26.662477"
     y="264.86865"
     style="font-style:normal;font-variant:normal;font-weight:normal;font-stretch:normal;font-size:40px;font-family:'Frank Ruhl Hofshi';-inkscape-font-specification:'Frank Ruhl Hofshi, Normal';font-variant-ligatures:normal;font-variant-caps:normal;font-variant-numeric:normal;font-feature-settings:normal;text-align:start;writing-mode:lr-tb;text-anchor:start;fill:#f2f3f3;fill-opacity:1" /><tspan
     sodipodi:role="line"
     x="26.662477"
     y="314.86865"
     id="tspan1978-4-3"
     style="font-style:normal;font-variant:normal;font-weight:normal;font-stretch:normal;font-size:40px;font-family:'Frank Ruhl Hofshi';-inkscape-font-specification:'Frank Ruhl Hofshi, Normal';font-variant-ligatures:normal;font-variant-caps:normal;font-variant-numeric:normal;font-feature-settings:normal;text-align:start;writing-mode:lr-tb;text-anchor:start;fill:#f2f3f3;fill-opacity:1">System</tspan><tspan
     sodipodi:role="line"
     x="26.662477"
     y="365.60782"
     id="tspan1982-6-8"
     style="font-style:normal;font-variant:normal;font-weight:normal;font-stretch:normal;font-size:40px;font-family:'Frank Ruhl Hofshi';-inkscape-font-specification:'Frank Ruhl Hofshi, Normal';font-variant-ligatures:normal;font-variant-caps:normal;font-variant-numeric:normal;font-feature-settings:normal;text-align:start;writing-mode:lr-tb;text-anchor:start;fill:#f2f3f3;fill-opacity:1" /></text>
</svg>